<?xml version="1.0" encoding="UTF-8"?>
<svg id="Layer_1" data-name="Layer 1" xmlns="http://www.w3.org/2000/svg" viewBox="0 0 457.54 229">
  <defs>
    <style>
      .cls-1 {
        fill: #fff;
      }

      .cls-1, .cls-2 {
        stroke-width: 0px;
      }

      .cls-2 {
        fill: #ff0001;
      }
    </style>
  </defs>
  <path class="cls-2" d="m181.48,114.5c0,27.22-22.06,49.28-49.28,49.28s-49.28-22.06-49.28-49.28,22.06-49.28,49.28-49.28,49.28,22.06,49.28,49.28"/>
  <path class="cls-1" d="m132.59,141.98c-13.54.05-27.63-11.51-27.69-30.06-.04-12.27,6.58-24.09,15.04-31.09,8.26-6.83,19.56-11.23,29.82-11.26,1.32,0,2.7.11,3.55.39-8.97,1.86-16.11,10.21-16.08,19.67,0,.32.03.65.06.81,15.01,3.65,21.82,12.71,21.86,25.24.04,12.53-9.84,26.25-26.56,26.31"/>
  <polyline class="cls-2" points="208.58 109.31 199.08 86.62 205.29 86.62 211.22 101.68 216.97 86.62 222.89 86.62 213.67 109.31"/>
  <path class="cls-2" d="m245.15,97.87c0,1.47-.23,2.92-.68,4.35-.45,1.43-1.13,2.71-2.02,3.84-.89,1.13-2.02,2.04-3.39,2.73-1.36.69-2.95,1.03-4.77,1.03s-3.41-.34-4.77-1.03c-1.37-.69-2.5-1.6-3.39-2.73-.89-1.13-1.57-2.41-2.02-3.84-.46-1.43-.68-2.88-.68-4.35s.22-2.92.68-4.33c.45-1.41,1.13-2.68,2.02-3.79.89-1.11,2.02-2.01,3.39-2.68,1.36-.67,2.95-1.01,4.77-1.01s3.4.34,4.75,1.01c1.35.67,2.48,1.57,3.39,2.68.91,1.11,1.59,2.38,2.05,3.79.46,1.41.68,2.86.68,4.33m-5.74-.03c0-.94-.11-1.84-.33-2.69-.22-.85-.55-1.58-.99-2.2-.44-.61-.97-1.1-1.6-1.46-.63-.36-1.37-.54-2.21-.54s-1.59.18-2.21.54c-.63.36-1.16.85-1.6,1.46-.44.61-.77,1.35-.99,2.2-.22.85-.33,1.74-.33,2.69s.11,1.89.33,2.72c.22.83.54,1.56.96,2.2.42.63.96,1.12,1.6,1.49.64.36,1.39.54,2.24.54s1.59-.18,2.21-.54c.62-.36,1.16-.86,1.6-1.49.44-.63.77-1.37.99-2.2.22-.83.33-1.74.33-2.72"/>
  <path class="cls-2" d="m263.13,109.31l-.23-1.74c-.53.6-1.24,1.12-2.11,1.58-.87.46-1.91.68-3.1.68-1.56,0-2.94-.33-4.13-.99-1.19-.66-2.19-1.54-3-2.64-.81-1.1-1.43-2.37-1.85-3.81-.42-1.45-.64-2.95-.64-4.52,0-1.47.22-2.92.66-4.33.44-1.41,1.11-2.67,1.99-3.79.89-1.11,2.01-2.01,3.35-2.68,1.35-.67,2.92-1.01,4.74-1.01,1.19,0,2.47.21,3.85.65v-8.8h5.83v31.4m-5.83-17.7c-1.12-.44-2.17-.66-3.14-.66s-1.86.19-2.57.57c-.72.38-1.31.89-1.78,1.53-.47.64-.82,1.37-1.05,2.17s-.35,1.63-.35,2.47c0,.94.1,1.85.3,2.72.2.87.52,1.62.94,2.27.42.65.95,1.17,1.59,1.56.64.39,1.4.59,2.27.59.72,0,1.45-.2,2.2-.59.74-.39,1.28-.86,1.59-1.39v-11.24Z"/>
  <path class="cls-2" d="m285.44,109.28l-.24-1.69c-.63.69-1.44,1.24-2.41,1.64-.98.39-2.05.59-3.21.59-.98,0-1.92-.16-2.82-.49-.9-.33-1.69-.8-2.39-1.41-.69-.61-1.25-1.36-1.67-2.25-.42-.9-.64-1.91-.64-3.04s.22-2.12.66-2.99c.44-.86,1.04-1.59,1.79-2.19.76-.59,1.62-1.08,2.6-1.46.98-.38,2-.66,3.07-.85.76-.16,1.59-.27,2.48-.35.9-.08,1.65-.15,2.24-.21v-.33c0-1.25-.32-2.15-.97-2.68-.64-.53-1.54-.8-2.67-.8-.66,0-1.3.08-1.9.24-.6.16-1.13.35-1.61.59-.47.24-.89.47-1.25.71-.36.23-.65.44-.87.64l-1.93-4.1c.25-.22.64-.49,1.15-.8.52-.31,1.15-.62,1.89-.92.74-.3,1.57-.55,2.49-.75.93-.21,1.92-.31,2.99-.31,1.26,0,2.4.17,3.43.49,1.04.33,1.93.84,2.69,1.55.75.71,1.34,1.6,1.76,2.68.42,1.08.64,2.39.64,3.93v14.57m-5.79-10.61c-.63.03-1.28.09-1.94.17-.66.07-1.3.17-1.9.3-1.26.25-2.14.68-2.63,1.29-.49.61-.73,1.28-.73,2s.27,1.36.83,1.81c.55.46,1.34.68,2.35.68.76,0,1.49-.16,2.2-.47.71-.31,1.32-.71,1.82-1.18v-4.61Z"/>
  <path class="cls-2" d="m313.44,107.37c-.22.16-.57.37-1.04.66-.47.28-1.06.56-1.76.82-.71.27-1.53.5-2.47.68-.94.19-2.01.28-3.2.28-1.38,0-2.71-.23-3.98-.71-1.27-.47-2.4-1.19-3.38-2.16-.98-.98-1.76-2.2-2.35-3.67-.58-1.47-.87-3.22-.87-5.22s.29-3.77.85-5.27c.57-1.51,1.34-2.76,2.3-3.76.96-1.01,2.08-1.75,3.34-2.24,1.26-.49,2.58-.73,3.96-.73s2.47.17,3.46.52c.99.34,1.84.77,2.56,1.29.72.51,1.31,1.09,1.76,1.72.46.62.83,1.22,1.11,1.78l-4.34,2.92c-.47-.82-1.06-1.57-1.76-2.28-.71-.71-1.62-1.06-2.75-1.06-1.26,0-2.35.56-3.27,1.67-.93,1.11-1.39,2.85-1.39,5.2s.47,3.99,1.41,5.18c.94,1.19,2.31,1.79,4.1,1.79.84,0,1.61-.08,2.28-.26.67-.17,1.26-.38,1.76-.61.5-.23.92-.48,1.25-.73.33-.25.57-.46.73-.61"/>
  <path class="cls-2" d="m337.21,97.87c0,1.47-.23,2.92-.69,4.35-.45,1.43-1.13,2.71-2.02,3.84-.9,1.13-2.03,2.04-3.39,2.73-1.37.69-2.96,1.03-4.78,1.03s-3.41-.34-4.77-1.03c-1.36-.69-2.5-1.6-3.39-2.73-.89-1.13-1.57-2.41-2.03-3.84-.45-1.43-.68-2.88-.68-4.35s.23-2.92.68-4.33c.46-1.41,1.14-2.68,2.03-3.79.89-1.11,2.02-2.01,3.39-2.68,1.36-.67,2.95-1.01,4.77-1.01s3.41.34,4.76,1.01c1.35.67,2.48,1.57,3.39,2.68.91,1.11,1.59,2.38,2.04,3.79.46,1.41.69,2.86.69,4.33m-5.74-.03c0-.94-.11-1.84-.33-2.69-.22-.85-.55-1.58-.99-2.2-.44-.61-.97-1.1-1.6-1.46-.62-.36-1.36-.54-2.21-.54s-1.58.18-2.21.54c-.62.36-1.16.85-1.6,1.46s-.77,1.35-.99,2.2c-.22.85-.33,1.74-.33,2.69s.11,1.89.33,2.72c.22.83.54,1.56.96,2.2.42.63.96,1.12,1.61,1.49.64.36,1.39.54,2.23.54s1.59-.18,2.21-.54c.63-.36,1.16-.86,1.6-1.49.44-.63.77-1.37.99-2.2.22-.83.33-1.74.33-2.72"/>
  <path class="cls-2" d="m368.78,109.31v-13.32c0-1.51-.28-2.72-.85-3.65-.56-.93-1.62-1.39-3.15-1.39-.44,0-.89.07-1.34.21-.46.14-.89.31-1.3.49-.41.19-.77.39-1.08.59-.32.21-.56.38-.75.54.06.37.13.8.19,1.27.06.47.09.99.09,1.55v13.7h-5.84v-13.32c0-.69-.06-1.34-.16-1.96-.11-.61-.31-1.14-.59-1.6-.28-.46-.66-.82-1.11-1.09-.45-.27-1.03-.4-1.72-.4-.88,0-1.71.24-2.49.71-.78.47-1.44.97-1.97,1.51v16.14h-5.84v-22.69h5.37l.23,1.69c.69-.62,1.55-1.16,2.57-1.6,1.02-.44,2.05-.66,3.09-.66s2.13.16,3.18.49c1.06.33,2.04.9,2.95,1.72,1.04-.62,2.17-1.15,3.41-1.58,1.24-.42,2.57-.63,3.99-.63,1.69,0,3.12.22,4.26.66,1.15.44,2.07,1.07,2.76,1.88.69.82,1.19,1.82,1.48,3.01.3,1.2.45,2.56.45,4.1v13.6"/>
  <path class="cls-2" d="m345.81,151.1c1.14-.39,2.1-1.09,2.88-2.07.77-.99,1.16-2.27,1.16-3.82,0-1.77-.51-3.14-1.53-4.14-1.02-.99-2.49-1.84-4.41-2.54-3.35-1.22-5.03-2.53-5.03-3.93,0-.73.28-1.4.85-2.01.56-.61,1.48-.92,2.76-.92,1.13,0,2.15.2,3.06.59.91.4,1.74.94,2.47,1.65l1.42-2.51c-.73-.7-1.68-1.3-2.84-1.81-1.16-.5-2.55-.75-4.16-.75-2.04,0-3.68.56-4.91,1.67-1.23,1.11-1.85,2.55-1.85,4.32,0,1.52.42,2.75,1.28,3.68.85.93,2.31,1.77,4.38,2.54,3.59,1.4,5.39,2.86,5.39,4.39,0,1.19-.36,2.06-1.07,2.6-.71.55-1.77.82-3.18.82s-2.57-.26-3.59-.8c-1.02-.53-1.87-1.09-2.54-1.67l-1.19,2.84c.24.24.7.56,1.37.96.67.39,1.51.74,2.51,1.05,1.01.31,2.15.46,3.43.46,1.07,0,2.17-.2,3.31-.59m-17.41,0c1.14-.39,2.1-1.09,2.88-2.07.78-.99,1.17-2.27,1.17-3.82,0-1.77-.52-3.14-1.53-4.14-1.02-.99-2.49-1.84-4.41-2.54-3.35-1.22-5.02-2.53-5.02-3.93,0-.73.28-1.4.84-2.01.57-.61,1.49-.92,2.77-.92,1.13,0,2.15.2,3.06.59.91.4,1.74.94,2.47,1.65l1.42-2.51c-.73-.7-1.67-1.3-2.84-1.81-1.16-.5-2.54-.75-4.15-.75-2.04,0-3.68.56-4.92,1.67-1.23,1.11-1.85,2.55-1.85,4.32,0,1.52.43,2.75,1.28,3.68.86.93,2.32,1.77,4.39,2.54,3.59,1.4,5.39,2.86,5.39,4.39,0,1.19-.36,2.06-1.07,2.6-.72.55-1.78.82-3.18.82s-2.56-.26-3.59-.8c-1.02-.53-1.86-1.09-2.54-1.67l-1.18,2.84c.24.24.7.56,1.37.96.67.39,1.51.74,2.51,1.05,1,.31,2.15.46,3.43.46,1.06,0,2.17-.2,3.31-.59m-26.39-18.16c1-.87,2.19-1.3,3.56-1.3.61,0,1.34.17,2.2.52.85.35,1.58.99,2.17,1.9.59.91.92,1.99.98,3.24h-10.96c.36-2.04,1.05-3.5,2.06-4.37m8.7,18.08c1.39-.46,2.41-1.02,3.09-1.69l-.87-2.88c-.82.7-1.75,1.28-2.79,1.74-1.04.46-2.22.68-3.57.68-2.26,0-3.97-.77-5.17-2.33-1.19-1.55-1.78-3.7-1.78-6.44h15.08c0-1.65-.27-3.37-.8-5.17-.53-1.79-1.51-3.25-2.95-4.39-1.44-1.13-3.23-1.69-5.4-1.69-1.43,0-2.86.35-4.29,1.05-1.43.7-2.61,1.96-3.54,3.79-.93,1.83-1.4,3.99-1.4,6.49,0,3.74.92,6.6,2.74,8.56,1.83,1.97,4.3,2.95,7.4,2.95,1.44,0,2.84-.23,4.23-.68m-33.06.18v-17.09c.76-.61,1.66-1.17,2.7-1.67,1.03-.51,2.12-.76,3.24-.76,1.77,0,3.04.52,3.82,1.56.78,1.03,1.16,2.47,1.16,4.29v13.67h3.34v-13.57c0-2.93-.58-5.12-1.73-6.58-1.16-1.46-3.17-2.19-6.03-2.19-1.25,0-2.44.21-3.56.64-1.13.43-2.12.98-2.97,1.64l-.23-1.74h-3.06v21.8h3.34Zm-9-26.21c.43-.38.64-.94.64-1.67s-.21-1.25-.64-1.65c-.42-.4-.94-.59-1.55-.59s-1.14.2-1.58.59c-.44.4-.66.94-.66,1.65s.22,1.29.66,1.67c.44.38.97.57,1.58.57s1.12-.19,1.55-.57m.14,4.41h-3.38v21.8h3.38v-21.8Zm-11.36,21.71c1.14-.39,2.1-1.09,2.88-2.07.78-.99,1.17-2.27,1.17-3.82,0-1.77-.51-3.14-1.53-4.14-1.02-.99-2.49-1.84-4.41-2.54-3.35-1.22-5.03-2.53-5.03-3.93,0-.73.28-1.4.85-2.01.56-.61,1.48-.92,2.76-.92,1.13,0,2.14.2,3.06.59.91.4,1.74.94,2.47,1.65l1.42-2.51c-.73-.7-1.68-1.3-2.84-1.81-1.16-.5-2.55-.75-4.16-.75-2.04,0-3.68.56-4.91,1.67-1.24,1.11-1.85,2.55-1.85,4.32,0,1.52.43,2.75,1.28,3.68.85.93,2.32,1.77,4.39,2.54,3.59,1.4,5.39,2.86,5.39,4.39,0,1.19-.36,2.06-1.07,2.6-.71.55-1.77.82-3.17.82s-2.57-.26-3.59-.8c-1.02-.53-1.87-1.09-2.54-1.67l-1.19,2.84c.24.24.7.56,1.37.96.67.39,1.51.74,2.52,1.05,1.01.31,2.15.46,3.43.46,1.07,0,2.17-.2,3.31-.59m-21.04,0c.98-.39,1.89-.93,2.74-1.6l.23,1.69h3.1v-21.8h-3.42v17.05c-.67.67-1.53,1.24-2.58,1.71-1.05.47-2.11.71-3.17.71-1.65,0-2.89-.43-3.73-1.3-.84-.86-1.26-2.26-1.26-4.18v-13.98h-3.34v13.8c0,2.86.61,5,1.83,6.4,1.22,1.4,3.2,2.1,5.94,2.1,1.46,0,2.68-.2,3.65-.59m-28.52-2.42c-.64-.16-1.22-.35-1.74-.6v-14.94c.76-.52,1.51-.88,2.26-1.07s1.47-.29,2.17-.29c.94,0,1.94.26,2.97.8,1.04.53,1.92,1.45,2.65,2.76.73,1.31,1.1,2.94,1.1,4.89,0,2.65-.67,4.76-2.01,6.33-1.34,1.57-3.19,2.35-5.53,2.35-.61,0-1.23-.08-1.87-.23m6.88,2.03c1.57-.66,2.92-1.9,4.07-3.73,1.14-1.82,1.71-4.05,1.71-6.67,0-1.86-.31-3.68-.94-5.46-.62-1.78-1.69-3.22-3.19-4.32-1.51-1.09-3.25-1.64-5.23-1.64-.79,0-1.61.09-2.44.27-.84.18-1.7.49-2.58.91v-9.37h-3.34v29.34c.86.39,1.91.77,3.15,1.12,1.25.35,2.66.52,4.25.52,1.47,0,2.98-.33,4.55-.98"/>
</svg>